# xmcd CD database file
# Copyright (C) 1993-1998 Ti Kan
# 
# Track frame offsets:
#     183
#     16473
#     32368
#     49623
#     74220
#     118855
#     152748
#     175970
#     197230
#     214700
#     231895
#     237240
#     257678
#     280925
# 
# Disc length: 4015 seconds
# 
# Revision: 1
# Processed by: cddbd v1.4b41PL1 Copyright (c) Steve Scherf et al.
# Submitted via: DiscPlay 4.0.4
# 
DISCID=ca0fad0e
DTITLE=Gary Moore - Walkways
DYEAR=1900
DGENRE=
TTITLE0=Don't Let Me Be Misunderstood
TTITLE1=Hot Gossip
TTITLE2=Really Gonna Rock Tonight
TTITLE3=Back On The Streets (Live)
TTITLE4=Dallas Warhead (Live)
TTITLE5=Parisienne Walkways (Live)
TTITLE6=Nuclear Attack
TTITLE7=Run To Your Mama
TTITLE8=Whe Woman's In Love
TTITLE9=Kidnapped
TTITLE10=Dirty Fingers
TTITLE11=Dancin'
TTITLE12=White Knuckles/Rockin' And Rollin'
TTITLE13=Hiroshima
EXTD=
EXTT0=
EXTT1=
EXTT2=
EXTT3=
EXTT4=
EXTT5=
EXTT6=
EXTT7=
EXTT8=
EXTT9=
EXTT10=
EXTT11=
EXTT12=
EXTT13=
PLAYORDER=
